<svg width="101" height="44" viewBox="0 0 101 44" fill="none" xmlns="http://www.w3.org/2000/svg">
<path d="M22.9568 13.9226C20.8704 13.9226 18.9824 14.7909 17.6369 16.1846C17.6581 16.3174 17.6695 16.4531 17.6695 16.5919C17.6695 17.7111 16.94 18.6626 15.9312 18.9963C15.6887 19.7276 15.5571 20.5095 15.5571 21.3217C15.5571 25.4016 18.8768 28.7214 22.9568 28.7214C27.0368 28.7214 30.3565 25.4016 30.3565 21.3217C30.3565 17.2417 27.0368 13.9226 22.9568 13.9226ZM26.0521 24.4175C25.2587 25.2104 24.1641 25.7015 22.9568 25.7015C20.5422 25.7015 18.577 23.737 18.577 21.3217C18.577 18.907 20.5422 16.9424 22.9568 16.9424C25.3715 16.9424 27.336 18.907 27.336 21.3217C27.336 22.5296 26.8449 23.6241 26.0521 24.4175Z" fill="white"/>
<path d="M14.7624 21.3421C14.7624 20.4703 14.0871 19.8341 13.254 19.8341H8.90975C8.07665 19.8341 7.40133 20.4972 7.40133 21.3303C7.40133 22.1634 8.07663 22.8265 8.90975 22.8265H11.5108C10.8945 24.523 9.28411 25.6995 7.3994 25.6995C4.98452 25.6995 3.02146 23.7358 3.02146 21.321C3.02146 18.9061 4.97564 16.9423 7.40258 16.9423V16.9359H9.09078C9.92388 16.9359 10.5992 16.261 10.5992 15.4279C10.5992 14.5948 9.92391 13.9199 9.09078 13.9199H7.40135C7.31412 13.9199 7.22873 13.9204 7.14554 13.9346C3.18259 14.069 0 17.3305 0 21.3256C0 25.4057 3.31939 28.7333 7.39947 28.7333C11.4795 28.7333 14.7989 25.442 14.7989 21.3421H14.7624Z" fill="white"/>
<path d="M16.9983 16.5921C16.9983 16.7327 16.9826 16.8691 16.953 17.0006C16.9301 17.1038 16.8981 17.2033 16.8589 17.2993C16.7859 17.4779 16.6851 17.6432 16.5621 17.7886C16.4945 17.8694 16.4197 17.9449 16.3388 18.013C16.0148 18.287 15.5955 18.4523 15.1381 18.4523C14.1106 18.4523 13.2773 17.6196 13.2773 16.5921C13.2773 15.5651 14.1106 14.7319 15.1381 14.7319C16.165 14.732 16.9983 15.5652 16.9983 16.5921Z" fill="white"/>
<path d="M93.3091 15.1465C94.5949 15.1465 95.7627 15.4317 96.8091 16.0039C97.8564 16.5767 98.6831 17.396 99.2876 18.458C99.8929 19.5216 100.194 20.7381 100.194 22.1035C100.194 23.4697 99.8841 24.6871 99.2622 25.751C98.6413 26.8128 97.7907 27.6384 96.7124 28.2266V28.2275C95.6505 28.7993 94.4748 29.084 93.189 29.084C91.919 29.084 90.7673 28.799 89.7368 28.2266L89.7349 28.2256C88.7047 27.6368 87.8944 26.8182 87.3062 25.7725V25.7715C86.7172 24.708 86.4243 23.4841 86.4243 22.1035C86.4243 20.7381 86.7253 19.5215 87.3306 18.458C87.9351 17.396 88.7618 16.5767 89.8091 16.0039C90.8554 15.4317 92.0233 15.1465 93.3091 15.1465ZM93.2612 17.7939C92.5794 17.7939 91.945 17.9555 91.3569 18.2803C90.7897 18.6023 90.3353 19.0872 89.9937 19.7393L89.9927 19.7412C89.6536 20.3733 89.48 21.1588 89.48 22.1035C89.48 23.5053 89.8341 24.5729 90.5239 25.3252L90.6587 25.46C91.345 26.1113 92.186 26.4365 93.189 26.4365C93.871 26.4365 94.505 26.2742 95.0933 25.9492L95.0952 25.9482C95.6955 25.625 96.1822 25.1391 96.5552 24.4863C96.9253 23.8385 97.1138 23.0463 97.1138 22.1035C97.1138 21.1595 96.933 20.3748 96.5786 19.7432L96.5776 19.7422C96.2203 19.0896 95.7495 18.604 95.1655 18.2812C94.5773 17.9563 93.9432 17.794 93.2612 17.7939Z" fill="white" stroke="white" stroke-width="0.269333"/>
<path d="M77.4619 15.1465C78.5037 15.1465 79.4294 15.3583 80.2354 15.7852C80.9181 16.1265 81.4787 16.5457 81.915 17.041V15.3623H84.9463V28.9492C84.9463 30.1857 84.6866 31.2898 84.1621 32.2568L84.1611 32.2559C83.6362 33.24 82.8737 34.0117 81.875 34.5684L81.874 34.5674C80.8893 35.1251 79.7133 35.4023 78.3506 35.4023C76.5359 35.4023 75.0173 34.9726 73.8047 34.1045L73.583 33.9404C72.5036 33.1018 71.8846 31.9849 71.7305 30.5977L71.7139 30.4482H74.6787L74.708 30.5439C74.9057 31.1979 75.3231 31.725 75.9707 32.126L75.9717 32.127C76.6355 32.5437 77.427 32.7549 78.3506 32.7549C79.4259 32.7548 80.2787 32.4283 80.9219 31.7852L80.9229 31.7842C81.5778 31.1445 81.915 30.2066 81.915 28.9492V27.1182C81.4676 27.6313 80.9011 28.0733 80.2158 28.4434L80.2148 28.4443C79.4084 28.8722 78.4895 29.0839 77.4619 29.084C76.2853 29.084 75.204 28.7895 74.2217 28.2002L74.2188 28.1992C73.253 27.5935 72.4849 26.7584 71.9141 25.6982L71.9131 25.6963C71.3577 24.6182 71.0811 23.4036 71.0811 22.0557C71.0811 20.7077 71.3578 19.508 71.9141 18.4609V18.46C72.4854 17.4153 73.2548 16.6039 74.2217 16.0303L74.5947 15.8232C75.4758 15.3721 76.4324 15.1465 77.4619 15.1465ZM78.0381 17.7939C77.3571 17.7939 76.7237 17.9643 76.1357 18.3047L76.1338 18.3057C75.5495 18.6285 75.0688 19.1134 74.6953 19.7666L74.6963 19.7676C74.3415 20.4001 74.1611 21.1612 74.1611 22.0557C74.1612 22.9489 74.3409 23.7262 74.6963 24.3916C75.0698 25.0609 75.5497 25.5709 76.1348 25.9258L76.3623 26.0459C76.8982 26.3072 77.4566 26.4365 78.0381 26.4365C78.719 26.4365 79.3525 26.2671 79.9404 25.9268C80.5258 25.5879 80.9969 25.0935 81.3545 24.4404L81.3555 24.4395C81.7268 23.774 81.915 22.9968 81.915 22.1035C81.915 21.21 81.7272 20.4409 81.3564 19.792L81.3545 19.79C80.9969 19.1371 80.5256 18.6435 79.9404 18.3047C79.3525 17.9643 78.719 17.794 78.0381 17.7939Z" fill="white" stroke="white" stroke-width="0.269333"/>
<path d="M62.1426 15.1465C63.2015 15.1465 64.1292 15.3583 64.9209 15.7871H64.9199C65.5917 16.1302 66.1504 16.5507 66.5957 17.0479V15.3623H69.627V28.8682H66.5957V27.1416C66.1478 27.653 65.5806 28.0876 64.8945 28.4443C64.0722 28.872 63.1373 29.084 62.0938 29.084C60.933 29.0839 59.8677 28.7898 58.9014 28.2002L58.8994 28.1992C57.9336 27.5935 57.1656 26.7584 56.5947 25.6982L56.5938 25.6963C56.0384 24.6182 55.7618 23.4036 55.7617 22.0557C55.7617 20.7077 56.0385 19.508 56.5947 18.4609V18.46C57.166 17.4153 57.9355 16.6039 58.9023 16.0303L59.2754 15.8232C60.1564 15.3721 61.1131 15.1465 62.1426 15.1465ZM62.7188 17.7939C62.0378 17.7939 61.4044 17.9643 60.8164 18.3047L60.8145 18.3057C60.2302 18.6285 59.7494 19.1134 59.376 19.7666L59.377 19.7676C59.0222 20.4001 58.8418 21.1612 58.8418 22.0557C58.8418 22.9489 59.0216 23.7262 59.377 24.3916C59.7505 25.0609 60.2304 25.5709 60.8154 25.9258L61.043 26.0459C61.5789 26.3072 62.1373 26.4365 62.7188 26.4365C63.3997 26.4365 64.0331 26.2671 64.6211 25.9268C65.2064 25.5879 65.6775 25.0935 66.0352 24.4404L66.0361 24.4395C66.4075 23.774 66.5957 22.9968 66.5957 22.1035C66.5957 21.21 66.4079 20.4409 66.0371 19.792L66.0352 19.79C65.6776 19.1371 65.2063 18.6435 64.6211 18.3047C64.0331 17.9643 63.3997 17.794 62.7188 17.7939Z" fill="white" stroke="white" stroke-width="0.269333"/>
<path d="M48.8325 15.1465C49.8926 15.1465 50.8437 15.3666 51.6821 15.8105H51.6812C52.5378 16.2554 53.2054 16.9146 53.6821 17.7852L53.856 18.1211C54.2336 18.9234 54.4204 19.8603 54.4204 20.9268V28.8682H51.436V21.335C51.436 20.1712 51.1455 19.3043 50.5845 18.7129L50.5835 18.7119C50.021 18.1038 49.2507 17.794 48.2563 17.7939C47.262 17.7939 46.4828 18.1036 45.9038 18.7129C45.3427 19.3043 45.0513 20.1712 45.0513 21.335V28.8682H42.0679V21.335C42.0679 20.1713 41.7773 19.3043 41.2163 18.7129L41.2153 18.7119C40.6528 18.1037 39.8817 17.7939 38.8872 17.7939C37.8929 17.794 37.1136 18.1035 36.5347 18.7129C35.9737 19.3043 35.6831 20.1713 35.6831 21.335V28.8682H32.6753V15.3623H35.6831V16.6602C36.1036 16.2247 36.609 15.8753 37.1997 15.6143C37.9062 15.3021 38.6618 15.1465 39.4644 15.1465C40.5408 15.1465 41.5083 15.3748 42.3628 15.835C43.1478 16.2577 43.7647 16.8561 44.2173 17.624C44.6316 16.8986 45.2364 16.3179 46.0298 15.8838C46.8983 15.3926 47.8332 15.1465 48.8325 15.1465Z" fill="white" stroke="white" stroke-width="0.269333"/>
</svg>
