<svg width="37" height="44" viewBox="0 0 37 44" fill="none" xmlns="http://www.w3.org/2000/svg">
<path d="M22.8997 13.0002C20.8132 13.0002 18.9253 13.8685 17.5798 15.2622C17.6009 15.395 17.6124 15.5308 17.6124 15.6695C17.6124 16.7888 16.8829 17.7403 15.8741 18.0739C15.6315 18.8052 15.5 19.5872 15.5 20.3993C15.5 24.4793 18.8197 27.799 22.8997 27.799C26.9796 27.799 30.2994 24.4793 30.2994 20.3993C30.2994 16.3193 26.9796 13.0002 22.8997 13.0002ZM25.9949 23.4952C25.2015 24.288 24.107 24.7791 22.8997 24.7791C20.485 24.7791 18.5198 22.8146 18.5198 20.3993C18.5198 17.9847 20.485 16.0201 22.8997 16.0201C25.3143 16.0201 27.2789 17.9847 27.2789 20.3993C27.2789 21.6072 26.7878 22.7018 25.9949 23.4952Z" fill="white"/>
<path d="M14.7624 20.889C14.7624 20.0172 14.0871 19.381 13.254 19.381H8.90975C8.07665 19.381 7.40133 20.0441 7.40133 20.8772C7.40133 21.7103 8.07663 22.3734 8.90975 22.3734H11.5108C10.8945 24.0699 9.28411 25.2464 7.3994 25.2464C4.98452 25.2464 3.02146 23.2827 3.02146 20.8678C3.02146 18.453 4.97564 16.4892 7.40258 16.4892V16.4828H9.09078C9.92388 16.4828 10.5992 15.8079 10.5992 14.9748C10.5992 14.1417 9.92391 13.4668 9.09078 13.4668H7.40135C7.31412 13.4668 7.22873 13.4673 7.14554 13.4815C3.18259 13.6159 0 16.8774 0 20.8725C0 24.9525 3.31939 28.2801 7.39947 28.2801C11.4795 28.2801 14.7989 24.9889 14.7989 20.889H14.7624Z" fill="white"/>
<path d="M16.9983 16.1387C16.9983 16.2793 16.9826 16.4157 16.953 16.5472C16.9301 16.6504 16.8981 16.75 16.8589 16.8459C16.7859 17.0245 16.6851 17.1898 16.5621 17.3352C16.4945 17.4161 16.4197 17.4915 16.3388 17.5597C16.0148 17.8336 15.5955 17.9989 15.1381 17.9989C14.1106 17.9989 13.2773 17.1663 13.2773 16.1387C13.2773 15.1118 14.1106 14.2786 15.1381 14.2786C16.165 14.2786 16.9983 15.1118 16.9983 16.1387Z" fill="white"/>
</svg>
