<svg width="24" height="24" viewBox="0 0 24 24" fill="none" xmlns="http://www.w3.org/2000/svg">
  <path d="M10.5 3C10.5 2.17157 11.1716 1.5 12 1.5C12.8284 1.5 13.5 2.17157 13.5 3C13.5 3.82843 12.8284 4.5 12 4.5C11.1716 4.5 10.5 3.82843 10.5 3Z" fill="currentColor"/>
  <path d="M3 22C3 21.4477 3.44772 21 4 21H20C20.5523 21 21 21.4477 21 22C21 22.5523 20.5523 23 20 23H4C3.44772 23 3 22.5523 3 22Z" fill="currentColor"/>
  <path d="M16.5 7C16.5 6.17157 15.8284 5.5 15 5.5C14.1716 5.5 13.5 6.17157 13.5 7V18C13.5 18.8284 14.1716 19.5 15 19.5C15.8284 19.5 16.5 18.8284 16.5 18V7Z" fill="currentColor"/>
  <path d="M10.5 8C10.5 7.17157 9.82843 6.5 9 6.5C8.17157 6.5 7.5 7.17157 7.5 8V18C7.5 18.8284 8.17157 19.5 9 19.5C9.82843 19.5 10.5 18.8284 10.5 18V8Z" fill="currentColor"/>
  <path d="M13.5 10C13.5 9.17157 12.8284 8.5 12 8.5C11.1716 8.5 10.5 9.17157 10.5 10V17C10.5 17.8284 11.1716 18.5 12 18.5C12.8284 18.5 13.5 17.8284 13.5 17V10Z" fill="currentColor"/>
</svg>