<svg width="24" height="24" viewBox="0 0 24 24" fill="none" xmlns="http://www.w3.org/2000/svg">
  <path d="M3 21C3 21.5523 3.44772 22 4 22H20C20.5523 22 21 21.5523 21 21C21 20.4477 20.5523 20 20 20H4C3.44772 20 3 20.4477 3 21Z" fill="currentColor"/>
  <path d="M12 3C8 3 5 6 5 10C5 14 8 16 12 16C16 16 19 14 19 10C19 6 16 3 12 3Z" fill="currentColor"/>
  <path d="M12 5C9.5 5 7.5 7 7.5 9.5C7.5 12 9.5 13.5 12 13.5C14.5 13.5 16.5 12 16.5 9.5C16.5 7 14.5 5 12 5Z" fill="currentColor"/>
  <path d="M10 7C9.44772 7 9 7.44772 9 8C9 8.55228 9.44772 9 10 9C10.5523 9 11 8.55228 11 8C11 7.44772 10.5523 7 10 7Z" fill="currentColor"/>
  <path d="M14 8C13.4477 8 13 8.44772 13 9C13 9.55228 13.4477 10 14 10C14.5523 10 15 9.55228 15 9C15 8.44772 14.5523 8 14 8Z" fill="currentColor"/>
</svg>