<svg width="24" height="24" viewBox="0 0 24 24" fill="none" xmlns="http://www.w3.org/2000/svg">
  <path d="M12 2C8 2 5 5 5 10C5 15 8 18 12 18C16 18 19 15 19 10C19 5 16 2 12 2Z" fill="currentColor"/>
  <path d="M12 5C10 5 8.5 6.5 8.5 8.5C8.5 10.5 10 12 12 12C14 12 15.5 10.5 15.5 8.5C15.5 6.5 14 5 12 5Z" fill="currentColor"/>
  <path d="M16 3C16.5523 3 17 3.44772 17 4C17 4.55228 16.5523 5 16 5C15.4477 5 15 4.55228 15 4C15 3.44772 15.4477 3 16 3Z" fill="currentColor"/>
  <path d="M8 3C8.55228 3 9 3.44772 9 4C9 4.55228 8.55228 5 8 5C7.44772 5 7 4.55228 7 4C7 3.44772 7.44772 3 8 3Z" fill="currentColor"/>
  <path d="M12 1C12.5523 1 13 1.44772 13 2C13 2.55228 12.5523 3 12 3C11.4477 3 11 2.55228 11 2C11 1.44772 11.4477 1 12 1Z" fill="currentColor"/>
</svg>